solid csg.js
facet normal 0 0 -1
outer loop
vertex 4.999999999999999 -9.75 0
vertex -5.000000000000001 -9.75 0
vertex -5.000000000000001 9.75 0
endloop
endfacet
facet normal 0 0 -1
outer loop
vertex 4.999999999999999 -9.75 0
vertex -5.000000000000001 9.75 0
vertex 4.999999999999999 9.75 0
endloop
endfacet
facet normal 0 0 1
outer loop
vertex 3.9999999999999987 8.75 1
vertex -4.000000000000001 8.75 1
vertex -4.000000000000001 -8.75 1
endloop
endfacet
facet normal 0 0 1
outer loop
vertex 3.9999999999999987 8.75 1
vertex -4.000000000000001 -8.75 1
vertex 3.9999999999999987 -8.75 1
endloop
endfacet
facet normal 0 0 1
outer loop
vertex 5.000000000000001 9.75 38
vertex 4.000000000000001 9.75 38
vertex 4.000000000000001 8.75 38
endloop
endfacet
facet normal 0 0 1
outer loop
vertex 5.000000000000001 9.75 38
vertex 4.000000000000001 8.75 38
vertex 4.000000000000001 -8.75 38
endloop
endfacet
facet normal 0 0 1
outer loop
vertex 5.000000000000001 9.75 38
vertex 4.000000000000001 -8.75 38
vertex 4.000000000000001 -9.75 38
endloop
endfacet
facet normal 0 0 1
outer loop
vertex 5.000000000000001 9.75 38
vertex 4.000000000000001 -9.75 38
vertex 5.000000000000001 -9.75 38
endloop
endfacet
facet normal 0 0 1
outer loop
vertex 4.000000000000001 -8.75 38
vertex -3.999999999999999 -8.75 38
vertex -3.999999999999999 -9.75 38
endloop
endfacet
facet normal 0 0 1
outer loop
vertex 4.000000000000001 -8.75 38
vertex -3.999999999999999 -9.75 38
vertex 4.000000000000001 -9.75 38
endloop
endfacet
facet normal 0 0 1
outer loop
vertex 4.000000000000001 9.75 38
vertex -3.999999999999999 9.75 38
vertex -3.999999999999999 8.75 38
endloop
endfacet
facet normal 0 0 1
outer loop
vertex 4.000000000000001 9.75 38
vertex -3.999999999999999 8.75 38
vertex 4.000000000000001 8.75 38
endloop
endfacet
facet normal 0 0 1
outer loop
vertex -3.999999999999999 -8.75 38
vertex -3.999999999999999 8.75 38
vertex -3.999999999999999 9.75 38
endloop
endfacet
facet normal 0 0 1
outer loop
vertex -3.999999999999999 -8.75 38
vertex -3.999999999999999 9.75 38
vertex -4.999999999999999 9.75 38
endloop
endfacet
facet normal 0 0 1
outer loop
vertex -3.999999999999999 -8.75 38
vertex -4.999999999999999 9.75 38
vertex -4.999999999999999 -9.75 38
endloop
endfacet
facet normal 0 0 1
outer loop
vertex -3.999999999999999 -8.75 38
vertex -4.999999999999999 -9.75 38
vertex -3.999999999999999 -9.75 38
endloop
endfacet
facet normal 0 -1 0
outer loop
vertex 4.999999999999999 -9.75 0
vertex 5.000000000000001 -9.75 38
vertex 4.000000000000001 -9.75 38
endloop
endfacet
facet normal 0 -1 0
outer loop
vertex 4.999999999999999 -9.75 0
vertex 4.000000000000001 -9.75 38
vertex -3.999999999999999 -9.75 38
endloop
endfacet
facet normal 0 -1 0
outer loop
vertex 4.999999999999999 -9.75 0
vertex -3.999999999999999 -9.75 38
vertex -4.999999999999999 -9.75 38
endloop
endfacet
facet normal 0 -1 0
outer loop
vertex 4.999999999999999 -9.75 0
vertex -4.999999999999999 -9.75 38
vertex -5.000000000000001 -9.75 0
endloop
endfacet
facet normal 0 1 0
outer loop
vertex -3.999999999999999 9.75 38
vertex 4.000000000000001 9.75 38
vertex 5.000000000000001 9.75 38
endloop
endfacet
facet normal 0 1 0
outer loop
vertex -3.999999999999999 9.75 38
vertex 5.000000000000001 9.75 38
vertex 4.999999999999999 9.75 0
endloop
endfacet
facet normal 0 1 0
outer loop
vertex -3.999999999999999 9.75 38
vertex 4.999999999999999 9.75 0
vertex -5.000000000000001 9.75 0
endloop
endfacet
facet normal 0 1 0
outer loop
vertex -3.999999999999999 9.75 38
vertex -5.000000000000001 9.75 0
vertex -4.999999999999999 9.75 38
endloop
endfacet
facet normal 1 0 0
outer loop
vertex 5.000000000000001 -9.75 38
vertex 4.999999999999999 -9.75 0
vertex 4.999999999999999 9.75 0
endloop
endfacet
facet normal 1 0 0
outer loop
vertex 5.000000000000001 -9.75 38
vertex 4.999999999999999 9.75 0
vertex 5.000000000000001 9.75 38
endloop
endfacet
facet normal -1 0 0
outer loop
vertex -5.000000000000001 -9.75 0
vertex -4.999999999999999 -9.75 38
vertex -4.999999999999999 9.75 38
endloop
endfacet
facet normal -1 0 0
outer loop
vertex -5.000000000000001 -9.75 0
vertex -4.999999999999999 9.75 38
vertex -5.000000000000001 9.75 0
endloop
endfacet
facet normal 0 1 0
outer loop
vertex -4.000000000000001 -8.75 1
vertex -3.999999999999999 -8.75 38
vertex 4.000000000000001 -8.75 38
endloop
endfacet
facet normal 0 1 0
outer loop
vertex -4.000000000000001 -8.75 1
vertex 4.000000000000001 -8.75 38
vertex 3.9999999999999987 -8.75 1
endloop
endfacet
facet normal 0 -1 0
outer loop
vertex 4.000000000000001 8.75 38
vertex -3.999999999999999 8.75 38
vertex -4.000000000000001 8.75 1
endloop
endfacet
facet normal 0 -1 0
outer loop
vertex 4.000000000000001 8.75 38
vertex -4.000000000000001 8.75 1
vertex 3.9999999999999987 8.75 1
endloop
endfacet
facet normal -1 0 0
outer loop
vertex 4.000000000000001 -8.75 38
vertex 4.000000000000001 8.75 38
vertex 3.9999999999999987 8.75 1
endloop
endfacet
facet normal -1 0 0
outer loop
vertex 4.000000000000001 -8.75 38
vertex 3.9999999999999987 8.75 1
vertex 3.9999999999999987 -8.75 1
endloop
endfacet
facet normal 1 0 0
outer loop
vertex -4.000000000000001 8.75 1
vertex -3.999999999999999 8.75 38
vertex -3.999999999999999 -8.75 38
endloop
endfacet
facet normal 1 0 0
outer loop
vertex -4.000000000000001 8.75 1
vertex -3.999999999999999 -8.75 38
vertex -4.000000000000001 -8.75 1
endloop
endfacet
endsolid csg.js
